<svg width="33" height="33" viewBox="0 0 33 33" fill="none" xmlns="http://www.w3.org/2000/svg">
<path d="M12.2787 5.09314H10.1395V6.16272H12.2787V5.09314Z" fill="black"/>
<path d="M12.2787 7.2323H10.1395V8.30188H12.2787V7.2323Z" fill="black"/>
<path d="M12.2787 9.37146H10.1395V10.441H12.2787V9.37146Z" fill="black"/>
<path d="M19.7658 5.62793H18.6962C18.6959 5.9115 18.5831 6.18336 18.3826 6.38387C18.1821 6.58438 17.9102 6.69718 17.6266 6.69751V7.7671C18.1938 7.76646 18.7375 7.54088 19.1386 7.13985C19.5396 6.73881 19.7652 6.19508 19.7658 5.62793Z" fill="black"/>
<path d="M22.4398 8.30189V7.2323C22.1563 7.23197 21.8844 7.11917 21.6839 6.91866C21.4834 6.71815 21.3706 6.44629 21.3702 6.16272H20.3007C20.3013 6.72987 20.5269 7.2736 20.9279 7.67464C21.3289 8.07567 21.8727 8.30125 22.4398 8.30189Z" fill="black"/>
<path d="M28.0545 31.5809C27.1517 31.745 26.2308 31.7862 25.3169 31.7032L16.0182 30.8578C15.8687 30.8442 15.7303 30.7735 15.6316 30.6604C15.5329 30.5473 15.4816 30.4006 15.4884 30.2506C15.4952 30.1007 15.5595 29.9591 15.6679 29.8554C15.7764 29.7516 15.9207 29.6937 16.0707 29.6936H23.2419C23.5965 29.693 23.9365 29.5518 24.1871 29.3009C24.4378 29.05 24.5787 28.71 24.5789 28.3553V28.3428C24.5783 28.0618 24.4871 27.7885 24.3189 27.5634L23.0944 25.9315C23.0168 25.8276 22.9748 25.7015 22.9745 25.5719V25.4802C22.9745 25.3616 23.0097 25.2456 23.0756 25.147C23.1414 25.0484 23.2351 24.9715 23.3447 24.9261C23.4542 24.8808 23.5748 24.8689 23.6911 24.892C23.8075 24.9152 23.9143 24.9723 23.9982 25.0561L26.3399 27.3978C26.3896 27.4475 26.4485 27.4868 26.5134 27.5137C26.5783 27.5406 26.6478 27.5544 26.7181 27.5544H32.6008V26.4848H26.9395L24.7546 24.2997C24.6996 24.2449 24.6409 24.1939 24.5789 24.1471V12.0455C24.5789 11.9036 24.5225 11.7676 24.4223 11.6673C24.322 11.567 24.1859 11.5107 24.0441 11.5107H23.5093V9.90628H24.3115C24.8079 9.90628 25.284 9.70908 25.635 9.35806C25.9861 9.00703 26.1833 8.53094 26.1833 8.03451C26.1833 7.53809 25.9861 7.062 25.635 6.71097C25.284 6.35994 24.8079 6.16274 24.3115 6.16274H24.2562C24.524 5.84191 24.6616 5.43233 24.6421 5.01492C24.6225 4.5975 24.4471 4.20261 24.1505 3.90825C23.8539 3.6139 23.4576 3.44148 23.0401 3.42507C22.6225 3.40866 22.214 3.54944 21.8952 3.81962C21.8446 3.2899 21.5984 2.79806 21.2047 2.44012C20.8109 2.08219 20.2979 1.88386 19.7658 1.88386C19.2336 1.88386 18.7206 2.08219 18.3269 2.44012C17.9331 2.79806 17.6869 3.2899 17.6363 3.81962C17.3175 3.54944 16.909 3.40866 16.4914 3.42507C16.0739 3.44148 15.6777 3.6139 15.3811 3.90825C15.0845 4.20261 14.909 4.5975 14.8895 5.01492C14.8699 5.43233 15.0076 5.84191 15.2753 6.16274H15.22C14.9425 6.16249 14.6684 6.22431 14.4178 6.3437V4.02357C14.4178 3.17256 14.0798 2.3564 13.478 1.75464C12.8763 1.15288 12.0601 0.814819 11.2091 0.814819C10.3581 0.814819 9.54191 1.15288 8.94016 1.75464C8.3384 2.3564 8.00033 3.17256 8.00033 4.02357V11.5107H7.46554C7.32371 11.5107 7.18768 11.567 7.08739 11.6673C6.98709 11.7676 6.93075 11.9036 6.93075 12.0455V14.3971L4.05898 16.8586H0.513245V17.9282H4.25679C4.38444 17.9282 4.50788 17.8825 4.6048 17.7994L7.70446 15.1426C8.02312 14.8696 8.42885 14.7195 8.84845 14.7194C8.89225 14.7194 8.93507 14.7324 8.97149 14.7568C9.00791 14.7811 9.03629 14.8157 9.05305 14.8562C9.06981 14.8966 9.07419 14.9412 9.06564 14.9841C9.05709 15.0271 9.03599 15.0665 9.00501 15.0975L7.08738 17.0152C7.01258 17.09 6.96164 17.1853 6.94101 17.289C6.92037 17.3928 6.93096 17.5003 6.97144 17.598C7.01192 17.6958 7.08047 17.7793 7.16842 17.838C7.25637 17.8968 7.35977 17.9282 7.46554 17.9282H13.0809C13.1518 17.9282 13.2198 17.9563 13.2699 18.0065C13.3201 18.0566 13.3483 18.1246 13.3483 18.1956C13.3483 18.2665 13.3201 18.3345 13.2699 18.3846C13.2198 18.4348 13.1518 18.463 13.0809 18.463H9.06992C8.92808 18.463 8.79206 18.5193 8.69176 18.6196C8.59147 18.7199 8.53513 18.8559 8.53513 18.9977C8.53513 19.1396 8.59147 19.2756 8.69176 19.3759C8.79206 19.4762 8.92808 19.5325 9.06992 19.5325H14.6852C14.7562 19.5325 14.8242 19.5607 14.8743 19.6109C14.9245 19.661 14.9526 19.729 14.9526 19.7999C14.9526 19.8709 14.9245 19.9389 14.8743 19.989C14.8242 20.0392 14.7562 20.0673 14.6852 20.0673H9.06992C8.92808 20.0673 8.79206 20.1237 8.69176 20.224C8.59147 20.3243 8.53513 20.4603 8.53513 20.6021C8.53513 20.744 8.59147 20.88 8.69176 20.9803C8.79206 21.0806 8.92808 21.1369 9.06992 21.1369H13.6157C13.6866 21.1369 13.7546 21.1651 13.8047 21.2152C13.8549 21.2654 13.883 21.3334 13.883 21.4043C13.883 21.4752 13.8549 21.5432 13.8047 21.5934C13.7546 21.6435 13.6866 21.6717 13.6157 21.6717H9.06992C8.92808 21.6717 8.79206 21.7281 8.69176 21.8283C8.59147 21.9286 8.53513 22.0647 8.53513 22.2065C8.53513 22.3483 8.59147 22.4844 8.69176 22.5847C8.79206 22.6849 8.92808 22.7413 9.06992 22.7413H11.7105C11.7187 22.7417 11.7264 22.7451 11.7323 22.7509C11.7381 22.7567 11.7417 22.7644 11.7422 22.7726C11.7427 22.7808 11.7401 22.7889 11.735 22.7954C11.7299 22.8019 11.7226 22.8062 11.7145 22.8076L8.04218 23.2667L4.40386 22.2271C4.35603 22.2134 4.30653 22.2065 4.25679 22.2065H0.513245V23.2761H4.18192L6.93075 24.0615V29.1588H6.93202C6.93151 29.2291 6.94496 29.2987 6.97158 29.3638C6.9982 29.4288 7.03745 29.4879 7.08708 29.5376C7.13671 29.5874 7.19571 29.6268 7.26068 29.6535C7.32564 29.6803 7.39528 29.6939 7.46554 29.6936H14.5248C14.4348 29.9319 14.4011 30.1877 14.4263 30.4412C14.4515 30.6946 14.535 30.9388 14.6702 31.1546C14.8055 31.3705 14.9887 31.5522 15.2058 31.6854C15.4228 31.8187 15.6677 31.9 15.9214 31.923L25.22 32.7686C25.5584 32.7995 25.8973 32.8149 26.2367 32.8148C26.9105 32.8148 27.5829 32.7542 28.2458 32.6337L32.6964 31.8245L32.5051 30.7721L28.0545 31.5809ZM13.3483 9.37149C13.3484 9.22971 13.4048 9.09377 13.5051 8.99351C13.6053 8.89326 13.7413 8.83686 13.883 8.8367H14.9526C15.5198 8.83734 16.0635 9.06292 16.4645 9.46395C16.8656 9.86499 17.0912 10.4087 17.0918 10.9759C17.0916 11.1177 17.0352 11.2536 16.935 11.3538C16.8347 11.4541 16.6988 11.5105 16.557 11.5107H15.4874C14.9203 11.51 14.3765 11.2844 13.9755 10.8834C13.5745 10.4824 13.3489 9.93864 13.3483 9.37149ZM15.22 7.23232H16.557C16.6628 7.23233 16.7662 7.20096 16.8541 7.1422C16.9421 7.08344 17.0106 6.99991 17.0511 6.90219C17.0916 6.80447 17.1022 6.69694 17.0815 6.59319C17.0609 6.48945 17.01 6.39416 16.9352 6.31937L16.133 5.51718C16.0773 5.4615 16.0331 5.39539 16.003 5.32264C15.9729 5.24988 15.9573 5.1719 15.9573 5.09316C15.9573 5.01441 15.9729 4.93643 16.003 4.86368C16.0331 4.79092 16.0773 4.72482 16.133 4.66913C16.1887 4.61345 16.2548 4.56928 16.3275 4.53914C16.4003 4.50901 16.4783 4.4935 16.557 4.4935C16.6358 4.4935 16.7137 4.50901 16.7865 4.53914C16.8592 4.56928 16.9253 4.61345 16.981 4.66913L17.7832 5.47132C17.858 5.54612 17.9533 5.59705 18.057 5.61769C18.1608 5.63833 18.2683 5.62774 18.366 5.58726C18.4638 5.54678 18.5473 5.47823 18.6061 5.39028C18.6648 5.30233 18.6962 5.19893 18.6962 5.09316V4.02357C18.6962 3.7399 18.8089 3.46785 19.0094 3.26726C19.21 3.06668 19.4821 2.95399 19.7658 2.95399C20.0494 2.95399 20.3215 3.06668 20.5221 3.26726C20.7227 3.46785 20.8353 3.7399 20.8353 4.02357V5.09316C20.8353 5.19893 20.8667 5.30233 20.9255 5.39028C20.9842 5.47823 21.0678 5.54678 21.1655 5.58726C21.2632 5.62774 21.3707 5.63833 21.4745 5.61769C21.5782 5.59705 21.6735 5.54612 21.7483 5.47132L22.5505 4.66913C22.6062 4.61345 22.6723 4.56928 22.745 4.53914C22.8178 4.50901 22.8958 4.4935 22.9745 4.4935C23.0533 4.4935 23.1312 4.50901 23.204 4.53914C23.2767 4.56928 23.3428 4.61345 23.3985 4.66913C23.4542 4.72482 23.4984 4.79092 23.5285 4.86368C23.5587 4.93643 23.5742 5.01441 23.5742 5.09316C23.5742 5.1719 23.5587 5.24988 23.5285 5.32264C23.4984 5.39539 23.4542 5.4615 23.3985 5.51718L22.5963 6.31937C22.5215 6.39416 22.4706 6.48945 22.45 6.59319C22.4293 6.69694 22.4399 6.80447 22.4804 6.90219C22.5209 6.99991 22.5894 7.08344 22.6774 7.1422C22.7653 7.20096 22.8687 7.23233 22.9745 7.23232H24.3115C24.5242 7.23232 24.7283 7.31684 24.8787 7.46728C25.0292 7.61772 25.1137 7.82176 25.1137 8.03451C25.1137 8.24727 25.0292 8.4513 24.8787 8.60174C24.7283 8.75218 24.5242 8.8367 24.3115 8.8367H22.9745C22.8327 8.8367 22.6966 8.89304 22.5964 8.99334C22.4961 9.09363 22.4397 9.22966 22.4397 9.37149V9.65634C21.8157 9.0959 20.9967 8.80272 20.1588 8.83985C19.3208 8.87698 18.531 9.24145 17.959 9.85488C17.7298 9.24234 17.3192 8.71428 16.782 8.34124C16.2448 7.96819 15.6066 7.7679 14.9526 7.76712H14.4646C14.52 7.61092 14.6223 7.47566 14.7575 7.37992C14.8928 7.28417 15.0543 7.23261 15.22 7.23232ZM22.372 11.5107H18.2291C18.3475 11.0513 18.6153 10.6443 18.9903 10.3537C19.3652 10.0632 19.8262 9.90547 20.3006 9.90547C20.7749 9.90547 21.2359 10.0632 21.6108 10.3537C21.9858 10.6443 22.2536 11.0513 22.372 11.5107ZM9.06992 4.02357C9.06992 3.45623 9.29529 2.91212 9.69647 2.51095C10.0976 2.10978 10.6417 1.8844 11.2091 1.8844C11.7764 1.8844 12.3205 2.10978 12.7217 2.51095C13.1229 2.91212 13.3483 3.45623 13.3483 4.02357V7.8591C13.0357 7.97001 12.7651 8.1749 12.5736 8.44568C12.3821 8.71645 12.2791 9.03985 12.2787 9.37149C12.2781 10.1613 12.5701 10.9234 13.0983 11.5107H9.06992V4.02357ZM10.1395 12.5802H11.2091V16.8586H10.1395V12.5802ZM8.84845 13.6498C8.56074 13.65 8.27474 13.694 8.00033 13.7805V12.5802H9.06992V13.6702C8.99682 13.6571 8.92272 13.6503 8.84845 13.6498ZM9.06992 16.5453V16.8586H8.7566L9.06992 16.5453ZM10.1395 24.0824L11.2091 23.9487V27.8676L10.1395 26.798V24.0824ZM8.06665 24.3415L9.06992 24.2161V26.7981L8.00033 27.8677V24.3457C8.0225 24.3457 8.04465 24.3443 8.06665 24.3415ZM8.7566 28.624L9.60471 27.7759L10.4528 28.624H8.7566ZM12.2787 23.7184C12.4415 23.6204 12.5763 23.482 12.67 23.3167C12.7637 23.1514 12.8131 22.9646 12.8135 22.7746C12.8135 22.7634 12.8135 22.7523 12.8129 22.7412H13.6157C13.8157 22.7411 14.0131 22.6961 14.1935 22.6096C14.3738 22.5231 14.5325 22.3972 14.6578 22.2413C14.7831 22.0854 14.8718 21.9033 14.9174 21.7085C14.963 21.5138 14.9643 21.3113 14.9213 21.1159C15.2502 21.057 15.545 20.877 15.7478 20.6115C15.9506 20.346 16.0467 20.0142 16.0171 19.6814C15.9875 19.3486 15.8343 19.039 15.5878 18.8135C15.3413 18.588 15.0193 18.4629 14.6852 18.463H14.3911C14.4306 18.2687 14.4264 18.0681 14.3789 17.8757C14.3313 17.6832 14.2416 17.5038 14.1162 17.3502C13.9909 17.1967 13.8329 17.0729 13.6539 16.9879C13.4748 16.9029 13.2791 16.8587 13.0809 16.8586H12.2787V12.5802H23.5093V23.8125C23.0784 23.8298 22.6708 24.013 22.3718 24.3238C22.0728 24.6345 21.9055 25.0489 21.9049 25.4802V25.5719C21.9057 25.933 22.0229 26.2843 22.2392 26.5735L23.4636 28.2053C23.4933 28.245 23.5094 28.2932 23.5095 28.3428V28.3553C23.5096 28.4264 23.4815 28.4947 23.4313 28.545C23.3811 28.5954 23.313 28.6238 23.2419 28.624H12.2787V23.7184Z" fill="black"/>
</svg>
